# xmcd
#
# Track frame offsets:
#	150
#	13407
#	30035
#	44850
#	54760
#	66467
#	82160
#	96172
#	108767
#	122720
#
# Disc length: 1842 seconds
#
# Revision: 0
# Processed by: cddbd v1.5.1PL2 Copyright (c) Steve Scherf et al.
# Submitted via: audiograbber 1.83.01
#
DISCID=8207300a
DTITLE=Marion Randell - Long Time Gone
DYEAR=1998
DGENRE=Country
TTITLE0=If it works for you
TTITLE1=One bridge I couldn't burn
TTITLE2=Corpus Christi Bay
TTITLE3=Cowboy cute, cowgirl crazy
TTITLE4=Long time gone
TTITLE5=Last sunrise
TTITLE6=You have the art of the heart
TTITLE7=Ring on the bar
TTITLE8=Wouldn't it be nice
TTITLE9=Deliver honest love
EXTD=
EXTT0=
EXTT1=
EXTT2=
EXTT3=
EXTT4=
EXTT5=
EXTT6=
EXTT7=
EXTT8=
EXTT9=
PLAYORDER=
